<mxfile host="app.diagrams.net" agent="Mozilla/5.0 (Windows NT 10.0; Win64; x64) AppleWebKit/537.36 (KHTML, like Gecko) Chrome/138.0.0.0 Safari/537.36" version="28.0.3">
  <diagram name="Page-1" id="P9CoXDW8uRd9M_O3XwbH">
    <mxGraphModel dx="2895" dy="1022" grid="1" gridSize="10" guides="1" tooltips="1" connect="1" arrows="1" fold="1" page="1" pageScale="1" pageWidth="1000" pageHeight="1169" math="0" shadow="0">
      <root>
        <mxCell id="0" />
        <mxCell id="1" parent="0" />
        <mxCell id="0fHbCotXsVHA08c29kzg-1" value="ทบทวนสัญลักษณ์" style="swimlane;fontFamily=Sarabun;fontSource=https%3A%2F%2Ffonts.googleapis.com%2Fcss%3Ffamily%3DSarabun;" vertex="1" parent="1">
          <mxGeometry x="-840" y="40" width="640" height="290" as="geometry" />
        </mxCell>
        <mxCell id="0fHbCotXsVHA08c29kzg-2" value="&lt;font data-font-src=&quot;https://fonts.googleapis.com/css?family=Sarabun&quot; face=&quot;Sarabun&quot;&gt;เริ่มต้น&lt;/font&gt;" style="ellipse;whiteSpace=wrap;html=1;" vertex="1" parent="0fHbCotXsVHA08c29kzg-1">
          <mxGeometry x="20" y="40" width="130" height="30" as="geometry" />
        </mxCell>
        <mxCell id="0fHbCotXsVHA08c29kzg-3" value="" style="endArrow=classic;html=1;rounded=0;" edge="1" parent="0fHbCotXsVHA08c29kzg-1">
          <mxGeometry width="50" height="50" relative="1" as="geometry">
            <mxPoint x="84.5" y="70" as="sourcePoint" />
            <mxPoint x="84.5" y="120" as="targetPoint" />
          </mxGeometry>
        </mxCell>
        <mxCell id="0fHbCotXsVHA08c29kzg-4" value="&lt;font face=&quot;Sarabun&quot;&gt;สิ้นสุด&lt;/font&gt;" style="ellipse;whiteSpace=wrap;html=1;" vertex="1" parent="0fHbCotXsVHA08c29kzg-1">
          <mxGeometry x="150" y="90" width="130" height="30" as="geometry" />
        </mxCell>
        <mxCell id="0fHbCotXsVHA08c29kzg-5" value="" style="endArrow=classic;html=1;rounded=0;" edge="1" parent="0fHbCotXsVHA08c29kzg-1">
          <mxGeometry width="50" height="50" relative="1" as="geometry">
            <mxPoint x="214.5" y="40" as="sourcePoint" />
            <mxPoint x="214.5" y="90" as="targetPoint" />
          </mxGeometry>
        </mxCell>
        <mxCell id="0fHbCotXsVHA08c29kzg-6" value="กระบวนการ" style="rounded=0;whiteSpace=wrap;html=1;fontFamily=Sarabun;fontSource=https%3A%2F%2Ffonts.googleapis.com%2Fcss%3Ffamily%3DSarabun;" vertex="1" parent="0fHbCotXsVHA08c29kzg-1">
          <mxGeometry x="320" y="70" width="120" height="30" as="geometry" />
        </mxCell>
        <mxCell id="0fHbCotXsVHA08c29kzg-7" value="" style="endArrow=classic;html=1;rounded=0;" edge="1" parent="0fHbCotXsVHA08c29kzg-1">
          <mxGeometry width="50" height="50" relative="1" as="geometry">
            <mxPoint x="379" y="40" as="sourcePoint" />
            <mxPoint x="379.5" y="70" as="targetPoint" />
          </mxGeometry>
        </mxCell>
        <mxCell id="0fHbCotXsVHA08c29kzg-8" value="" style="endArrow=classic;html=1;rounded=0;" edge="1" parent="0fHbCotXsVHA08c29kzg-1">
          <mxGeometry width="50" height="50" relative="1" as="geometry">
            <mxPoint x="379.75" y="100" as="sourcePoint" />
            <mxPoint x="380.25" y="130" as="targetPoint" />
          </mxGeometry>
        </mxCell>
        <mxCell id="0fHbCotXsVHA08c29kzg-9" value="ประโยคเงื่อนไข" style="rhombus;whiteSpace=wrap;html=1;fontFamily=Sarabun;fontSource=https%3A%2F%2Ffonts.googleapis.com%2Fcss%3Ffamily%3DSarabun;" vertex="1" parent="0fHbCotXsVHA08c29kzg-1">
          <mxGeometry x="490" y="60" width="100" height="60" as="geometry" />
        </mxCell>
        <mxCell id="0fHbCotXsVHA08c29kzg-10" value="" style="endArrow=classic;html=1;rounded=0;" edge="1" parent="0fHbCotXsVHA08c29kzg-1">
          <mxGeometry width="50" height="50" relative="1" as="geometry">
            <mxPoint x="539.71" y="30" as="sourcePoint" />
            <mxPoint x="540.21" y="60" as="targetPoint" />
          </mxGeometry>
        </mxCell>
        <mxCell id="0fHbCotXsVHA08c29kzg-11" value="" style="endArrow=classic;html=1;rounded=0;" edge="1" parent="0fHbCotXsVHA08c29kzg-1">
          <mxGeometry width="50" height="50" relative="1" as="geometry">
            <mxPoint x="539.71" y="120" as="sourcePoint" />
            <mxPoint x="540" y="175" as="targetPoint" />
          </mxGeometry>
        </mxCell>
        <mxCell id="0fHbCotXsVHA08c29kzg-12" value="จริง" style="edgeLabel;html=1;align=center;verticalAlign=middle;resizable=0;points=[];fontFamily=Sarabun;fontSource=https%3A%2F%2Ffonts.googleapis.com%2Fcss%3Ffamily%3DSarabun;" vertex="1" connectable="0" parent="0fHbCotXsVHA08c29kzg-11">
          <mxGeometry x="-0.4142" y="-1" relative="1" as="geometry">
            <mxPoint as="offset" />
          </mxGeometry>
        </mxCell>
        <mxCell id="0fHbCotXsVHA08c29kzg-13" value="" style="endArrow=classic;html=1;rounded=0;exitX=1;exitY=0.5;exitDx=0;exitDy=0;" edge="1" parent="0fHbCotXsVHA08c29kzg-1" source="0fHbCotXsVHA08c29kzg-9">
          <mxGeometry width="50" height="50" relative="1" as="geometry">
            <mxPoint x="620" y="95" as="sourcePoint" />
            <mxPoint x="610" y="175" as="targetPoint" />
            <Array as="points">
              <mxPoint x="610" y="90" />
            </Array>
          </mxGeometry>
        </mxCell>
        <mxCell id="0fHbCotXsVHA08c29kzg-14" value="&lt;font data-font-src=&quot;https://fonts.googleapis.com/css?family=Sarabun&quot; face=&quot;Sarabun&quot;&gt;เท็จ&lt;/font&gt;" style="edgeLabel;html=1;align=center;verticalAlign=middle;resizable=0;points=[];" vertex="1" connectable="0" parent="0fHbCotXsVHA08c29kzg-13">
          <mxGeometry x="-0.0019" y="-2" relative="1" as="geometry">
            <mxPoint as="offset" />
          </mxGeometry>
        </mxCell>
        <mxCell id="0fHbCotXsVHA08c29kzg-15" value="&lt;font data-font-src=&quot;https://fonts.googleapis.com/css?family=Sarabun&quot; face=&quot;Sarabun&quot;&gt;ฟังก์ชัน/โมดูล&lt;/font&gt;" style="shape=process;whiteSpace=wrap;html=1;backgroundOutline=1;" vertex="1" parent="0fHbCotXsVHA08c29kzg-1">
          <mxGeometry x="25" y="180" width="120" height="30" as="geometry" />
        </mxCell>
        <mxCell id="0fHbCotXsVHA08c29kzg-16" value="" style="endArrow=classic;html=1;rounded=0;" edge="1" parent="0fHbCotXsVHA08c29kzg-1">
          <mxGeometry width="50" height="50" relative="1" as="geometry">
            <mxPoint x="84.70999999999998" y="150" as="sourcePoint" />
            <mxPoint x="85.20999999999998" y="180" as="targetPoint" />
          </mxGeometry>
        </mxCell>
        <mxCell id="0fHbCotXsVHA08c29kzg-17" value="" style="endArrow=classic;html=1;rounded=0;" edge="1" parent="0fHbCotXsVHA08c29kzg-1">
          <mxGeometry width="50" height="50" relative="1" as="geometry">
            <mxPoint x="84.70999999999998" y="210" as="sourcePoint" />
            <mxPoint x="85.20999999999998" y="240" as="targetPoint" />
          </mxGeometry>
        </mxCell>
        <mxCell id="0fHbCotXsVHA08c29kzg-18" value="" style="strokeWidth=2;html=1;shape=mxgraph.flowchart.start_2;whiteSpace=wrap;" vertex="1" parent="0fHbCotXsVHA08c29kzg-1">
          <mxGeometry x="205" y="185" width="20" height="20" as="geometry" />
        </mxCell>
        <mxCell id="0fHbCotXsVHA08c29kzg-19" value="" style="endArrow=classic;html=1;rounded=0;" edge="1" parent="0fHbCotXsVHA08c29kzg-1">
          <mxGeometry width="50" height="50" relative="1" as="geometry">
            <mxPoint x="214.70999999999998" y="155" as="sourcePoint" />
            <mxPoint x="215.20999999999998" y="185" as="targetPoint" />
          </mxGeometry>
        </mxCell>
        <mxCell id="0fHbCotXsVHA08c29kzg-20" value="" style="endArrow=classic;html=1;rounded=0;entryX=0;entryY=0.5;entryDx=0;entryDy=0;entryPerimeter=0;" edge="1" parent="0fHbCotXsVHA08c29kzg-1" target="0fHbCotXsVHA08c29kzg-18">
          <mxGeometry width="50" height="50" relative="1" as="geometry">
            <mxPoint x="189.99999999999997" y="155" as="sourcePoint" />
            <mxPoint x="190.49999999999997" y="185" as="targetPoint" />
            <Array as="points">
              <mxPoint x="190" y="180" />
            </Array>
          </mxGeometry>
        </mxCell>
        <mxCell id="0fHbCotXsVHA08c29kzg-21" value="" style="endArrow=classic;html=1;rounded=0;entryX=1;entryY=0.5;entryDx=0;entryDy=0;entryPerimeter=0;" edge="1" parent="0fHbCotXsVHA08c29kzg-1" target="0fHbCotXsVHA08c29kzg-18">
          <mxGeometry width="50" height="50" relative="1" as="geometry">
            <mxPoint x="239.99999999999997" y="155" as="sourcePoint" />
            <mxPoint x="240.49999999999997" y="185" as="targetPoint" />
            <Array as="points">
              <mxPoint x="240" y="180" />
            </Array>
          </mxGeometry>
        </mxCell>
        <mxCell id="0fHbCotXsVHA08c29kzg-22" value="" style="endArrow=classic;html=1;rounded=0;" edge="1" parent="0fHbCotXsVHA08c29kzg-1">
          <mxGeometry width="50" height="50" relative="1" as="geometry">
            <mxPoint x="214.70999999999998" y="205" as="sourcePoint" />
            <mxPoint x="215.20999999999998" y="235" as="targetPoint" />
          </mxGeometry>
        </mxCell>
        <mxCell id="0fHbCotXsVHA08c29kzg-57" value="" style="edgeStyle=orthogonalEdgeStyle;rounded=0;orthogonalLoop=1;jettySize=auto;html=1;" edge="1" parent="0fHbCotXsVHA08c29kzg-1" source="0fHbCotXsVHA08c29kzg-23" target="0fHbCotXsVHA08c29kzg-15">
          <mxGeometry relative="1" as="geometry" />
        </mxCell>
        <mxCell id="0fHbCotXsVHA08c29kzg-23" value="&lt;font data-font-src=&quot;https://fonts.googleapis.com/css?family=Sarabun&quot; face=&quot;Sarabun&quot;&gt;ตัวเชื่อม&lt;/font&gt;" style="text;html=1;align=center;verticalAlign=middle;resizable=0;points=[];autosize=1;strokeColor=none;fillColor=none;" vertex="1" parent="0fHbCotXsVHA08c29kzg-1">
          <mxGeometry x="220" y="190" width="60" height="30" as="geometry" />
        </mxCell>
        <mxCell id="0fHbCotXsVHA08c29kzg-24" value="" style="endArrow=classic;html=1;rounded=0;" edge="1" parent="0fHbCotXsVHA08c29kzg-1">
          <mxGeometry width="50" height="50" relative="1" as="geometry">
            <mxPoint x="353.71" y="165" as="sourcePoint" />
            <mxPoint x="354.21" y="195" as="targetPoint" />
          </mxGeometry>
        </mxCell>
        <mxCell id="0fHbCotXsVHA08c29kzg-25" value="" style="verticalLabelPosition=bottom;verticalAlign=top;html=1;shape=offPageConnector;rounded=0;size=0.5;" vertex="1" parent="0fHbCotXsVHA08c29kzg-1">
          <mxGeometry x="339" y="195" width="30" height="30" as="geometry" />
        </mxCell>
        <mxCell id="0fHbCotXsVHA08c29kzg-26" value="" style="endArrow=classic;html=1;rounded=0;" edge="1" parent="0fHbCotXsVHA08c29kzg-1">
          <mxGeometry width="50" height="50" relative="1" as="geometry">
            <mxPoint x="405.71" y="195" as="sourcePoint" />
            <mxPoint x="406.21" y="225" as="targetPoint" />
          </mxGeometry>
        </mxCell>
        <mxCell id="0fHbCotXsVHA08c29kzg-27" value="" style="verticalLabelPosition=bottom;verticalAlign=top;html=1;shape=offPageConnector;rounded=0;size=0.5;" vertex="1" parent="0fHbCotXsVHA08c29kzg-1">
          <mxGeometry x="391" y="165" width="30" height="30" as="geometry" />
        </mxCell>
        <mxCell id="0fHbCotXsVHA08c29kzg-28" value="หน้าต่อไป" style="text;html=1;align=center;verticalAlign=middle;resizable=0;points=[];autosize=1;strokeColor=none;fillColor=none;fontFamily=Sarabun;fontSource=https%3A%2F%2Ffonts.googleapis.com%2Fcss%3Ffamily%3DSarabun;" vertex="1" parent="0fHbCotXsVHA08c29kzg-1">
          <mxGeometry x="345" y="220" width="70" height="30" as="geometry" />
        </mxCell>
        <mxCell id="0fHbCotXsVHA08c29kzg-29" value="ก" style="text;html=1;align=center;verticalAlign=middle;resizable=0;points=[];autosize=1;strokeColor=none;fillColor=none;fontFamily=Sarabun;fontSource=https%3A%2F%2Ffonts.googleapis.com%2Fcss%3Ffamily%3DSarabun;" vertex="1" parent="0fHbCotXsVHA08c29kzg-1">
          <mxGeometry x="339" y="190" width="30" height="30" as="geometry" />
        </mxCell>
        <mxCell id="0fHbCotXsVHA08c29kzg-30" value="ก" style="text;html=1;align=center;verticalAlign=middle;resizable=0;points=[];autosize=1;strokeColor=none;fillColor=none;fontFamily=Sarabun;fontSource=https%3A%2F%2Ffonts.googleapis.com%2Fcss%3Ffamily%3DSarabun;" vertex="1" parent="0fHbCotXsVHA08c29kzg-1">
          <mxGeometry x="391" y="130" width="30" height="30" as="geometry" />
        </mxCell>
        <mxCell id="0fHbCotXsVHA08c29kzg-31" value="แสดงผล/รับค่า" style="shape=parallelogram;perimeter=parallelogramPerimeter;whiteSpace=wrap;html=1;fixedSize=1;fontFamily=Sarabun;fontSource=https%3A%2F%2Ffonts.googleapis.com%2Fcss%3Ffamily%3DSarabun;" vertex="1" parent="0fHbCotXsVHA08c29kzg-1">
          <mxGeometry x="450" y="210" width="120" height="30" as="geometry" />
        </mxCell>
        <mxCell id="0fHbCotXsVHA08c29kzg-32" value="" style="endArrow=classic;html=1;rounded=0;" edge="1" parent="0fHbCotXsVHA08c29kzg-1">
          <mxGeometry width="50" height="50" relative="1" as="geometry">
            <mxPoint x="509.71" y="180" as="sourcePoint" />
            <mxPoint x="510.21" y="210" as="targetPoint" />
          </mxGeometry>
        </mxCell>
        <mxCell id="0fHbCotXsVHA08c29kzg-33" value="" style="endArrow=classic;html=1;rounded=0;" edge="1" parent="0fHbCotXsVHA08c29kzg-1">
          <mxGeometry width="50" height="50" relative="1" as="geometry">
            <mxPoint x="509.71" y="240" as="sourcePoint" />
            <mxPoint x="510.21" y="270" as="targetPoint" />
          </mxGeometry>
        </mxCell>
        <mxCell id="0fHbCotXsVHA08c29kzg-34" value="&lt;font data-font-src=&quot;https://fonts.googleapis.com/css?family=Sarabun&quot; face=&quot;Sarabun&quot;&gt;โจทย์ปัญหา&lt;/font&gt;" style="swimlane;whiteSpace=wrap;html=1;" vertex="1" parent="1">
          <mxGeometry x="-840" y="340.75" width="640" height="279.25" as="geometry" />
        </mxCell>
        <mxCell id="0fHbCotXsVHA08c29kzg-35" value="&lt;font data-font-src=&quot;https://fonts.googleapis.com/css?family=Sarabun&quot; face=&quot;Sarabun&quot; style=&quot;font-size: 14px;&quot;&gt;จงเขียน Flowchart เพื่อแสดงขั้นตอนการทำงาน ของเครื่องขายน้ำอัตโนมัติที่ชื่อว่า &quot;ตะพาบลอย&quot;&lt;br&gt;โดยจะต้องมีสินค้าดังนี้&lt;br&gt;&lt;u&gt;ประเภทน้ำ&lt;span style=&quot;white-space: pre;&quot;&gt;&#x9;&lt;/span&gt;&lt;span style=&quot;white-space: pre;&quot;&gt;&#x9;&lt;/span&gt;&lt;span style=&quot;white-space: pre;&quot;&gt;&#x9;&lt;/span&gt;&lt;span style=&quot;white-space: pre;&quot;&gt;&#x9;&lt;/span&gt;&lt;span style=&quot;white-space: pre;&quot;&gt;&#x9;&lt;/span&gt;&lt;span style=&quot;white-space: pre;&quot;&gt;&#x9;&lt;span style=&quot;white-space: pre;&quot;&gt;&#x9;&lt;/span&gt;ข&lt;/span&gt;นม&lt;/u&gt;&lt;br&gt;&lt;span style=&quot;white-space: pre;&quot;&gt;&#x9;&lt;/span&gt;- โค้ก กระป๋องละ 10 บาท&lt;span style=&quot;white-space: pre;&quot;&gt;&#x9;&lt;/span&gt;&lt;span style=&quot;white-space: pre;&quot;&gt;&#x9;&lt;/span&gt;&lt;span style=&quot;white-space: pre;&quot;&gt;&#x9;&lt;/span&gt;&lt;span style=&quot;white-space: pre;&quot;&gt;&#x9;&lt;/span&gt;- เมล็ดทานตะวัน 13 บาท&lt;br&gt;&lt;span style=&quot;white-space: pre;&quot;&gt;&#x9;&lt;/span&gt;- น้ำเขียว กระป๋องละ 12 บาท&lt;span style=&quot;white-space: pre;&quot;&gt;&#x9;&lt;/span&gt;&lt;span style=&quot;white-space: pre;&quot;&gt;&#x9;&lt;/span&gt;&lt;span style=&quot;white-space: pre;&quot;&gt;&#x9;&lt;/span&gt;- ถั่วแปบ 20 บาท&lt;br&gt;&lt;span style=&quot;white-space: pre;&quot;&gt;&#x9;&lt;/span&gt;- อเมริกาโน่ 30 บาท&lt;span style=&quot;white-space: pre;&quot;&gt;&#x9;&lt;/span&gt;&lt;span style=&quot;white-space: pre;&quot;&gt;&#x9;&lt;/span&gt;&lt;span style=&quot;white-space: pre;&quot;&gt;&#x9;&lt;/span&gt;&lt;span style=&quot;white-space: pre;&quot;&gt;&#x9;&lt;/span&gt;&lt;span style=&quot;white-space: pre;&quot;&gt;&#x9;&lt;/span&gt;- จิ้นส้มหมก 15 บาท&lt;br&gt;&lt;span style=&quot;white-space: pre;&quot;&gt;&#x9;&lt;/span&gt;- ลาเต้ หวานเจี๊ยบ 35 บาท&lt;span style=&quot;white-space: pre;&quot;&gt;&#x9;&lt;/span&gt;&lt;br&gt;&lt;br&gt;&lt;u&gt;สิ่งที่ระบบควรจะทำได้&lt;/u&gt;&lt;br&gt;&lt;span style=&quot;white-space: pre;&quot;&gt;&#x9;&lt;/span&gt;- ลูกค้าเลือกสินค้า, ระบบจะต้องรวมยอดขาย และรวมรายการสินค้าทั้งหมดที่ลูกค้าเลือก&lt;br&gt;&lt;span style=&quot;white-space: pre;&quot;&gt;&#x9;&lt;/span&gt;- สรุปยอดว่าเหลือเงินในตู้อีกเท่าไหร่ เหลือเหรียญอะไรบ้าง? ธนบัตรอะไรบ้าง? อย่างละเท่าไหร่?&lt;br&gt;&lt;br&gt;&lt;br&gt;&lt;/font&gt;" style="text;html=1;align=left;verticalAlign=middle;resizable=0;points=[];autosize=1;strokeColor=none;fillColor=none;fontSize=14;" vertex="1" parent="0fHbCotXsVHA08c29kzg-34">
          <mxGeometry x="25" y="30" width="580" height="240" as="geometry" />
        </mxCell>
        <mxCell id="0fHbCotXsVHA08c29kzg-43" value="&lt;font data-font-src=&quot;https://fonts.googleapis.com/css?family=Sarabun&quot; face=&quot;Sarabun&quot;&gt;เริ่มต้น&lt;/font&gt;" style="ellipse;whiteSpace=wrap;html=1;" vertex="1" parent="1">
          <mxGeometry x="440" y="30" width="120" height="40" as="geometry" />
        </mxCell>
        <mxCell id="0fHbCotXsVHA08c29kzg-44" value="" style="endArrow=classic;html=1;rounded=0;" edge="1" parent="1">
          <mxGeometry width="50" height="50" relative="1" as="geometry">
            <mxPoint x="499.6" y="70" as="sourcePoint" />
            <mxPoint x="499.6" y="120" as="targetPoint" />
          </mxGeometry>
        </mxCell>
        <mxCell id="0fHbCotXsVHA08c29kzg-53" value="" style="edgeStyle=orthogonalEdgeStyle;rounded=0;orthogonalLoop=1;jettySize=auto;html=1;" edge="1" parent="1" source="0fHbCotXsVHA08c29kzg-51" target="0fHbCotXsVHA08c29kzg-52">
          <mxGeometry relative="1" as="geometry" />
        </mxCell>
        <mxCell id="0fHbCotXsVHA08c29kzg-51" value="แสดงรายการสินค้า" style="rounded=0;whiteSpace=wrap;html=1;" vertex="1" parent="1">
          <mxGeometry x="440" y="120" width="120" height="60" as="geometry" />
        </mxCell>
        <mxCell id="0fHbCotXsVHA08c29kzg-62" value="" style="edgeStyle=orthogonalEdgeStyle;rounded=0;orthogonalLoop=1;jettySize=auto;html=1;" edge="1" parent="1" source="0fHbCotXsVHA08c29kzg-52" target="0fHbCotXsVHA08c29kzg-58">
          <mxGeometry relative="1" as="geometry" />
        </mxCell>
        <mxCell id="0fHbCotXsVHA08c29kzg-66" value="" style="edgeStyle=orthogonalEdgeStyle;rounded=0;orthogonalLoop=1;jettySize=auto;html=1;" edge="1" parent="1" source="0fHbCotXsVHA08c29kzg-52" target="0fHbCotXsVHA08c29kzg-59">
          <mxGeometry relative="1" as="geometry" />
        </mxCell>
        <mxCell id="0fHbCotXsVHA08c29kzg-52" value="ต้องการเครื่องดื่มมั้ย" style="rhombus;whiteSpace=wrap;html=1;" vertex="1" parent="1">
          <mxGeometry x="440" y="200" width="120" height="120" as="geometry" />
        </mxCell>
        <mxCell id="0fHbCotXsVHA08c29kzg-71" value="" style="edgeStyle=orthogonalEdgeStyle;rounded=0;orthogonalLoop=1;jettySize=auto;html=1;" edge="1" parent="1" source="0fHbCotXsVHA08c29kzg-58" target="0fHbCotXsVHA08c29kzg-70">
          <mxGeometry relative="1" as="geometry" />
        </mxCell>
        <mxCell id="0fHbCotXsVHA08c29kzg-58" value="" style="strokeWidth=2;html=1;shape=mxgraph.flowchart.start_2;whiteSpace=wrap;" vertex="1" parent="1">
          <mxGeometry x="630" y="250" width="20" height="20" as="geometry" />
        </mxCell>
        <mxCell id="0fHbCotXsVHA08c29kzg-69" value="" style="edgeStyle=orthogonalEdgeStyle;rounded=0;orthogonalLoop=1;jettySize=auto;html=1;" edge="1" parent="1" source="0fHbCotXsVHA08c29kzg-59" target="0fHbCotXsVHA08c29kzg-68">
          <mxGeometry relative="1" as="geometry" />
        </mxCell>
        <mxCell id="0fHbCotXsVHA08c29kzg-59" value="" style="strokeWidth=2;html=1;shape=mxgraph.flowchart.start_2;whiteSpace=wrap;" vertex="1" parent="1">
          <mxGeometry x="340" y="250" width="20" height="20" as="geometry" />
        </mxCell>
        <mxCell id="0fHbCotXsVHA08c29kzg-63" value="Yes" style="text;html=1;align=center;verticalAlign=middle;whiteSpace=wrap;rounded=0;" vertex="1" parent="1">
          <mxGeometry x="380" y="230" width="60" height="30" as="geometry" />
        </mxCell>
        <mxCell id="0fHbCotXsVHA08c29kzg-64" value="No" style="text;html=1;align=center;verticalAlign=middle;whiteSpace=wrap;rounded=0;" vertex="1" parent="1">
          <mxGeometry x="560" y="230" width="60" height="30" as="geometry" />
        </mxCell>
        <mxCell id="0fHbCotXsVHA08c29kzg-81" style="edgeStyle=orthogonalEdgeStyle;rounded=0;orthogonalLoop=1;jettySize=auto;html=1;entryX=0.5;entryY=0;entryDx=0;entryDy=0;exitX=0.5;exitY=1;exitDx=0;exitDy=0;" edge="1" parent="1" source="0fHbCotXsVHA08c29kzg-67" target="0fHbCotXsVHA08c29kzg-72">
          <mxGeometry relative="1" as="geometry">
            <mxPoint x="270" y="609.9399999999999" as="targetPoint" />
            <mxPoint x="324.93557142857117" y="519.9985714285714" as="sourcePoint" />
            <Array as="points">
              <mxPoint x="350" y="529.63" />
              <mxPoint x="350" y="529.63" />
            </Array>
          </mxGeometry>
        </mxCell>
        <mxCell id="0fHbCotXsVHA08c29kzg-110" style="edgeStyle=orthogonalEdgeStyle;rounded=0;orthogonalLoop=1;jettySize=auto;html=1;entryX=0.5;entryY=0;entryDx=0;entryDy=0;entryPerimeter=0;" edge="1" parent="1" source="0fHbCotXsVHA08c29kzg-67" target="0fHbCotXsVHA08c29kzg-107">
          <mxGeometry relative="1" as="geometry">
            <mxPoint x="240" y="450" as="targetPoint" />
          </mxGeometry>
        </mxCell>
        <mxCell id="0fHbCotXsVHA08c29kzg-67" value="โค้ก 10฿" style="rhombus;whiteSpace=wrap;html=1;" vertex="1" parent="1">
          <mxGeometry x="295" y="400" width="110" height="100" as="geometry" />
        </mxCell>
        <mxCell id="0fHbCotXsVHA08c29kzg-79" style="edgeStyle=orthogonalEdgeStyle;rounded=0;orthogonalLoop=1;jettySize=auto;html=1;entryX=0.5;entryY=0;entryDx=0;entryDy=0;" edge="1" parent="1" source="0fHbCotXsVHA08c29kzg-68" target="0fHbCotXsVHA08c29kzg-67">
          <mxGeometry relative="1" as="geometry" />
        </mxCell>
        <mxCell id="0fHbCotXsVHA08c29kzg-68" value="แสดงรายการเครื่องดื่ม" style="rounded=0;whiteSpace=wrap;html=1;" vertex="1" parent="1">
          <mxGeometry x="290" y="310" width="120" height="60" as="geometry" />
        </mxCell>
        <mxCell id="0fHbCotXsVHA08c29kzg-102" style="edgeStyle=orthogonalEdgeStyle;rounded=0;orthogonalLoop=1;jettySize=auto;html=1;entryX=0.5;entryY=0;entryDx=0;entryDy=0;" edge="1" parent="1" source="0fHbCotXsVHA08c29kzg-70" target="0fHbCotXsVHA08c29kzg-93">
          <mxGeometry relative="1" as="geometry" />
        </mxCell>
        <mxCell id="0fHbCotXsVHA08c29kzg-70" value="แสดงรายการอาหาร" style="rounded=0;whiteSpace=wrap;html=1;" vertex="1" parent="1">
          <mxGeometry x="580" y="310" width="120" height="60" as="geometry" />
        </mxCell>
        <mxCell id="0fHbCotXsVHA08c29kzg-90" value="" style="edgeStyle=orthogonalEdgeStyle;rounded=0;orthogonalLoop=1;jettySize=auto;html=1;" edge="1" parent="1" source="0fHbCotXsVHA08c29kzg-72" target="0fHbCotXsVHA08c29kzg-84">
          <mxGeometry relative="1" as="geometry" />
        </mxCell>
        <mxCell id="0fHbCotXsVHA08c29kzg-72" value="น้ำเขียว 12฿" style="rhombus;whiteSpace=wrap;html=1;" vertex="1" parent="1">
          <mxGeometry x="295" y="540" width="110" height="100" as="geometry" />
        </mxCell>
        <mxCell id="0fHbCotXsVHA08c29kzg-82" value="No" style="text;html=1;align=center;verticalAlign=middle;whiteSpace=wrap;rounded=0;" vertex="1" parent="1">
          <mxGeometry x="340" y="500" width="60" height="30" as="geometry" />
        </mxCell>
        <mxCell id="0fHbCotXsVHA08c29kzg-91" value="" style="edgeStyle=orthogonalEdgeStyle;rounded=0;orthogonalLoop=1;jettySize=auto;html=1;" edge="1" parent="1" source="0fHbCotXsVHA08c29kzg-84" target="0fHbCotXsVHA08c29kzg-88">
          <mxGeometry relative="1" as="geometry" />
        </mxCell>
        <mxCell id="0fHbCotXsVHA08c29kzg-84" value="อเมริกาโน่ 30฿" style="rhombus;whiteSpace=wrap;html=1;" vertex="1" parent="1">
          <mxGeometry x="295" y="669.63" width="110" height="100" as="geometry" />
        </mxCell>
        <mxCell id="0fHbCotXsVHA08c29kzg-86" value="No" style="text;html=1;align=center;verticalAlign=middle;whiteSpace=wrap;rounded=0;" vertex="1" parent="1">
          <mxGeometry x="340" y="639.63" width="60" height="30" as="geometry" />
        </mxCell>
        <mxCell id="0fHbCotXsVHA08c29kzg-118" style="edgeStyle=orthogonalEdgeStyle;rounded=0;orthogonalLoop=1;jettySize=auto;html=1;entryX=0;entryY=0.5;entryDx=0;entryDy=0;entryPerimeter=0;exitX=0.5;exitY=1;exitDx=0;exitDy=0;" edge="1" parent="1" source="0fHbCotXsVHA08c29kzg-88" target="0fHbCotXsVHA08c29kzg-117">
          <mxGeometry relative="1" as="geometry">
            <mxPoint x="350" y="930" as="targetPoint" />
          </mxGeometry>
        </mxCell>
        <mxCell id="0fHbCotXsVHA08c29kzg-88" value="ลาเต้&amp;nbsp;&lt;div&gt;หวานเจี๊ยบ 35฿&lt;/div&gt;" style="rhombus;whiteSpace=wrap;html=1;" vertex="1" parent="1">
          <mxGeometry x="295" y="799.63" width="110" height="100" as="geometry" />
        </mxCell>
        <mxCell id="0fHbCotXsVHA08c29kzg-89" value="No" style="text;html=1;align=center;verticalAlign=middle;whiteSpace=wrap;rounded=0;" vertex="1" parent="1">
          <mxGeometry x="340" y="769.63" width="60" height="30" as="geometry" />
        </mxCell>
        <mxCell id="0fHbCotXsVHA08c29kzg-92" style="edgeStyle=orthogonalEdgeStyle;rounded=0;orthogonalLoop=1;jettySize=auto;html=1;entryX=0.5;entryY=0;entryDx=0;entryDy=0;exitX=0.5;exitY=1;exitDx=0;exitDy=0;" edge="1" source="0fHbCotXsVHA08c29kzg-93" target="0fHbCotXsVHA08c29kzg-95" parent="1">
          <mxGeometry relative="1" as="geometry">
            <mxPoint x="560" y="609.9399999999999" as="targetPoint" />
            <mxPoint x="614.9355714285712" y="519.9985714285714" as="sourcePoint" />
            <Array as="points">
              <mxPoint x="640" y="529.63" />
              <mxPoint x="640" y="529.63" />
            </Array>
          </mxGeometry>
        </mxCell>
        <mxCell id="0fHbCotXsVHA08c29kzg-127" style="edgeStyle=orthogonalEdgeStyle;rounded=0;orthogonalLoop=1;jettySize=auto;html=1;entryX=0.5;entryY=0;entryDx=0;entryDy=0;entryPerimeter=0;" edge="1" parent="1" source="0fHbCotXsVHA08c29kzg-93" target="0fHbCotXsVHA08c29kzg-120">
          <mxGeometry relative="1" as="geometry">
            <mxPoint x="760" y="450" as="targetPoint" />
          </mxGeometry>
        </mxCell>
        <mxCell id="0fHbCotXsVHA08c29kzg-93" value="เมล็ดทานตะวัน 13฿" style="rhombus;whiteSpace=wrap;html=1;" vertex="1" parent="1">
          <mxGeometry x="585" y="400" width="110" height="100" as="geometry" />
        </mxCell>
        <mxCell id="0fHbCotXsVHA08c29kzg-94" value="" style="edgeStyle=orthogonalEdgeStyle;rounded=0;orthogonalLoop=1;jettySize=auto;html=1;" edge="1" source="0fHbCotXsVHA08c29kzg-95" target="0fHbCotXsVHA08c29kzg-98" parent="1">
          <mxGeometry relative="1" as="geometry" />
        </mxCell>
        <mxCell id="0fHbCotXsVHA08c29kzg-95" value="ถั่วแปบ 20฿&amp;nbsp;" style="rhombus;whiteSpace=wrap;html=1;" vertex="1" parent="1">
          <mxGeometry x="585" y="540" width="110" height="100" as="geometry" />
        </mxCell>
        <mxCell id="0fHbCotXsVHA08c29kzg-96" value="No" style="text;html=1;align=center;verticalAlign=middle;whiteSpace=wrap;rounded=0;" vertex="1" parent="1">
          <mxGeometry x="630" y="500" width="60" height="30" as="geometry" />
        </mxCell>
        <mxCell id="0fHbCotXsVHA08c29kzg-97" value="" style="edgeStyle=orthogonalEdgeStyle;rounded=0;orthogonalLoop=1;jettySize=auto;html=1;entryX=1;entryY=0.5;entryDx=0;entryDy=0;entryPerimeter=0;exitX=0.5;exitY=1;exitDx=0;exitDy=0;" edge="1" source="0fHbCotXsVHA08c29kzg-98" target="0fHbCotXsVHA08c29kzg-117" parent="1">
          <mxGeometry relative="1" as="geometry">
            <mxPoint x="640.0000000000005" y="799.6300000000006" as="targetPoint" />
          </mxGeometry>
        </mxCell>
        <mxCell id="0fHbCotXsVHA08c29kzg-98" value="จิ้นส้มหมก 15฿" style="rhombus;whiteSpace=wrap;html=1;" vertex="1" parent="1">
          <mxGeometry x="585" y="669.63" width="110" height="100" as="geometry" />
        </mxCell>
        <mxCell id="0fHbCotXsVHA08c29kzg-99" value="No" style="text;html=1;align=center;verticalAlign=middle;whiteSpace=wrap;rounded=0;" vertex="1" parent="1">
          <mxGeometry x="630" y="639.63" width="60" height="30" as="geometry" />
        </mxCell>
        <mxCell id="0fHbCotXsVHA08c29kzg-101" value="No" style="text;html=1;align=center;verticalAlign=middle;whiteSpace=wrap;rounded=0;" vertex="1" parent="1">
          <mxGeometry x="630" y="839.63" width="60" height="30" as="geometry" />
        </mxCell>
        <mxCell id="0fHbCotXsVHA08c29kzg-104" value="ใส่ถุง" style="rounded=0;whiteSpace=wrap;html=1;" vertex="1" parent="1">
          <mxGeometry x="195" y="920" width="110" height="40" as="geometry" />
        </mxCell>
        <mxCell id="0fHbCotXsVHA08c29kzg-107" value="" style="strokeWidth=2;html=1;shape=mxgraph.flowchart.start_2;whiteSpace=wrap;" vertex="1" parent="1">
          <mxGeometry x="240" y="580" width="20" height="20" as="geometry" />
        </mxCell>
        <mxCell id="0fHbCotXsVHA08c29kzg-108" value="" style="strokeWidth=2;html=1;shape=mxgraph.flowchart.start_2;whiteSpace=wrap;" vertex="1" parent="1">
          <mxGeometry x="240" y="709.63" width="20" height="20" as="geometry" />
        </mxCell>
        <mxCell id="0fHbCotXsVHA08c29kzg-116" style="edgeStyle=orthogonalEdgeStyle;rounded=0;orthogonalLoop=1;jettySize=auto;html=1;" edge="1" parent="1" source="0fHbCotXsVHA08c29kzg-109" target="0fHbCotXsVHA08c29kzg-104">
          <mxGeometry relative="1" as="geometry" />
        </mxCell>
        <mxCell id="0fHbCotXsVHA08c29kzg-109" value="" style="strokeWidth=2;html=1;shape=mxgraph.flowchart.start_2;whiteSpace=wrap;" vertex="1" parent="1">
          <mxGeometry x="240" y="839.63" width="20" height="20" as="geometry" />
        </mxCell>
        <mxCell id="0fHbCotXsVHA08c29kzg-111" style="edgeStyle=orthogonalEdgeStyle;rounded=0;orthogonalLoop=1;jettySize=auto;html=1;entryX=1;entryY=0.5;entryDx=0;entryDy=0;entryPerimeter=0;" edge="1" parent="1" source="0fHbCotXsVHA08c29kzg-72" target="0fHbCotXsVHA08c29kzg-107">
          <mxGeometry relative="1" as="geometry" />
        </mxCell>
        <mxCell id="0fHbCotXsVHA08c29kzg-112" style="edgeStyle=orthogonalEdgeStyle;rounded=0;orthogonalLoop=1;jettySize=auto;html=1;entryX=0.5;entryY=0;entryDx=0;entryDy=0;entryPerimeter=0;" edge="1" parent="1" source="0fHbCotXsVHA08c29kzg-107" target="0fHbCotXsVHA08c29kzg-108">
          <mxGeometry relative="1" as="geometry" />
        </mxCell>
        <mxCell id="0fHbCotXsVHA08c29kzg-113" style="edgeStyle=orthogonalEdgeStyle;rounded=0;orthogonalLoop=1;jettySize=auto;html=1;entryX=1;entryY=0.5;entryDx=0;entryDy=0;entryPerimeter=0;" edge="1" parent="1" source="0fHbCotXsVHA08c29kzg-84" target="0fHbCotXsVHA08c29kzg-108">
          <mxGeometry relative="1" as="geometry" />
        </mxCell>
        <mxCell id="0fHbCotXsVHA08c29kzg-114" style="edgeStyle=orthogonalEdgeStyle;rounded=0;orthogonalLoop=1;jettySize=auto;html=1;entryX=0.5;entryY=0;entryDx=0;entryDy=0;entryPerimeter=0;" edge="1" parent="1" source="0fHbCotXsVHA08c29kzg-108" target="0fHbCotXsVHA08c29kzg-109">
          <mxGeometry relative="1" as="geometry" />
        </mxCell>
        <mxCell id="0fHbCotXsVHA08c29kzg-115" style="edgeStyle=orthogonalEdgeStyle;rounded=0;orthogonalLoop=1;jettySize=auto;html=1;entryX=1;entryY=0.5;entryDx=0;entryDy=0;entryPerimeter=0;" edge="1" parent="1" source="0fHbCotXsVHA08c29kzg-88" target="0fHbCotXsVHA08c29kzg-109">
          <mxGeometry relative="1" as="geometry" />
        </mxCell>
        <mxCell id="0fHbCotXsVHA08c29kzg-136" style="edgeStyle=orthogonalEdgeStyle;rounded=0;orthogonalLoop=1;jettySize=auto;html=1;entryX=0.5;entryY=1;entryDx=0;entryDy=0;" edge="1" parent="1" source="0fHbCotXsVHA08c29kzg-117" target="0fHbCotXsVHA08c29kzg-52">
          <mxGeometry relative="1" as="geometry" />
        </mxCell>
        <mxCell id="0fHbCotXsVHA08c29kzg-117" value="" style="strokeWidth=2;html=1;shape=mxgraph.flowchart.start_2;whiteSpace=wrap;" vertex="1" parent="1">
          <mxGeometry x="490" y="920" width="20" height="20" as="geometry" />
        </mxCell>
        <mxCell id="0fHbCotXsVHA08c29kzg-119" value="No" style="text;html=1;align=center;verticalAlign=middle;whiteSpace=wrap;rounded=0;" vertex="1" parent="1">
          <mxGeometry x="340" y="899.63" width="60" height="30" as="geometry" />
        </mxCell>
        <mxCell id="0fHbCotXsVHA08c29kzg-120" value="" style="strokeWidth=2;html=1;shape=mxgraph.flowchart.start_2;whiteSpace=wrap;" vertex="1" parent="1">
          <mxGeometry x="750" y="580" width="20" height="20" as="geometry" />
        </mxCell>
        <mxCell id="0fHbCotXsVHA08c29kzg-124" style="edgeStyle=orthogonalEdgeStyle;rounded=0;orthogonalLoop=1;jettySize=auto;html=1;entryX=0.5;entryY=0;entryDx=0;entryDy=0;" edge="1" parent="1" source="0fHbCotXsVHA08c29kzg-121" target="0fHbCotXsVHA08c29kzg-123">
          <mxGeometry relative="1" as="geometry" />
        </mxCell>
        <mxCell id="0fHbCotXsVHA08c29kzg-121" value="" style="strokeWidth=2;html=1;shape=mxgraph.flowchart.start_2;whiteSpace=wrap;" vertex="1" parent="1">
          <mxGeometry x="750" y="709.63" width="20" height="20" as="geometry" />
        </mxCell>
        <mxCell id="0fHbCotXsVHA08c29kzg-123" value="ใส่ถุง" style="rounded=0;whiteSpace=wrap;html=1;" vertex="1" parent="1">
          <mxGeometry x="705" y="920" width="110" height="40" as="geometry" />
        </mxCell>
        <mxCell id="0fHbCotXsVHA08c29kzg-125" style="edgeStyle=orthogonalEdgeStyle;rounded=0;orthogonalLoop=1;jettySize=auto;html=1;entryX=0;entryY=0.5;entryDx=0;entryDy=0;entryPerimeter=0;" edge="1" parent="1" source="0fHbCotXsVHA08c29kzg-98" target="0fHbCotXsVHA08c29kzg-121">
          <mxGeometry relative="1" as="geometry" />
        </mxCell>
        <mxCell id="0fHbCotXsVHA08c29kzg-126" style="edgeStyle=orthogonalEdgeStyle;rounded=0;orthogonalLoop=1;jettySize=auto;html=1;entryX=0;entryY=0.5;entryDx=0;entryDy=0;entryPerimeter=0;" edge="1" parent="1" source="0fHbCotXsVHA08c29kzg-95" target="0fHbCotXsVHA08c29kzg-120">
          <mxGeometry relative="1" as="geometry" />
        </mxCell>
        <mxCell id="0fHbCotXsVHA08c29kzg-128" style="edgeStyle=orthogonalEdgeStyle;rounded=0;orthogonalLoop=1;jettySize=auto;html=1;entryX=0.5;entryY=0;entryDx=0;entryDy=0;entryPerimeter=0;" edge="1" parent="1" source="0fHbCotXsVHA08c29kzg-120" target="0fHbCotXsVHA08c29kzg-121">
          <mxGeometry relative="1" as="geometry" />
        </mxCell>
        <mxCell id="0fHbCotXsVHA08c29kzg-129" value="Yes" style="text;html=1;align=center;verticalAlign=middle;whiteSpace=wrap;rounded=0;" vertex="1" parent="1">
          <mxGeometry x="250" y="560" width="60" height="30" as="geometry" />
        </mxCell>
        <mxCell id="0fHbCotXsVHA08c29kzg-130" value="Yes" style="text;html=1;align=center;verticalAlign=middle;whiteSpace=wrap;rounded=0;" vertex="1" parent="1">
          <mxGeometry x="250" y="690" width="60" height="30" as="geometry" />
        </mxCell>
        <mxCell id="0fHbCotXsVHA08c29kzg-131" value="Yes" style="text;html=1;align=center;verticalAlign=middle;whiteSpace=wrap;rounded=0;" vertex="1" parent="1">
          <mxGeometry x="250" y="420" width="60" height="30" as="geometry" />
        </mxCell>
        <mxCell id="0fHbCotXsVHA08c29kzg-132" value="Yes" style="text;html=1;align=center;verticalAlign=middle;whiteSpace=wrap;rounded=0;" vertex="1" parent="1">
          <mxGeometry x="250" y="820" width="60" height="30" as="geometry" />
        </mxCell>
        <mxCell id="0fHbCotXsVHA08c29kzg-133" value="Yes" style="text;html=1;align=center;verticalAlign=middle;whiteSpace=wrap;rounded=0;" vertex="1" parent="1">
          <mxGeometry x="690" y="420" width="60" height="30" as="geometry" />
        </mxCell>
        <mxCell id="0fHbCotXsVHA08c29kzg-134" value="Yes" style="text;html=1;align=center;verticalAlign=middle;whiteSpace=wrap;rounded=0;" vertex="1" parent="1">
          <mxGeometry x="690" y="560" width="60" height="30" as="geometry" />
        </mxCell>
        <mxCell id="0fHbCotXsVHA08c29kzg-135" value="Yes" style="text;html=1;align=center;verticalAlign=middle;whiteSpace=wrap;rounded=0;" vertex="1" parent="1">
          <mxGeometry x="690" y="690" width="60" height="30" as="geometry" />
        </mxCell>
        <mxCell id="0fHbCotXsVHA08c29kzg-143" value="" style="edgeStyle=orthogonalEdgeStyle;rounded=0;orthogonalLoop=1;jettySize=auto;html=1;" edge="1" parent="1" source="0fHbCotXsVHA08c29kzg-140">
          <mxGeometry relative="1" as="geometry">
            <mxPoint x="500.00000000000045" y="990.0000000000005" as="targetPoint" />
          </mxGeometry>
        </mxCell>
        <mxCell id="0fHbCotXsVHA08c29kzg-140" value="" style="strokeWidth=2;html=1;shape=mxgraph.flowchart.start_2;whiteSpace=wrap;" vertex="1" parent="1">
          <mxGeometry x="490" y="950" width="20" height="20" as="geometry" />
        </mxCell>
        <mxCell id="0fHbCotXsVHA08c29kzg-141" style="edgeStyle=orthogonalEdgeStyle;rounded=0;orthogonalLoop=1;jettySize=auto;html=1;entryX=1;entryY=0.5;entryDx=0;entryDy=0;entryPerimeter=0;" edge="1" parent="1" source="0fHbCotXsVHA08c29kzg-123" target="0fHbCotXsVHA08c29kzg-140">
          <mxGeometry relative="1" as="geometry" />
        </mxCell>
        <mxCell id="0fHbCotXsVHA08c29kzg-142" style="edgeStyle=orthogonalEdgeStyle;rounded=0;orthogonalLoop=1;jettySize=auto;html=1;entryX=0;entryY=0.5;entryDx=0;entryDy=0;entryPerimeter=0;" edge="1" parent="1" source="0fHbCotXsVHA08c29kzg-104" target="0fHbCotXsVHA08c29kzg-140">
          <mxGeometry relative="1" as="geometry" />
        </mxCell>
        <mxCell id="0fHbCotXsVHA08c29kzg-144" value="รวมรายการสินค้า" style="rounded=0;whiteSpace=wrap;html=1;" vertex="1" parent="1">
          <mxGeometry x="440" y="990" width="120" height="60" as="geometry" />
        </mxCell>
        <mxCell id="0fHbCotXsVHA08c29kzg-145" value="" style="endArrow=classic;html=1;rounded=0;" edge="1" parent="1">
          <mxGeometry width="50" height="50" relative="1" as="geometry">
            <mxPoint x="499.71" y="1050" as="sourcePoint" />
            <mxPoint x="500.21" y="1080" as="targetPoint" />
          </mxGeometry>
        </mxCell>
        <mxCell id="0fHbCotXsVHA08c29kzg-146" value="" style="verticalLabelPosition=bottom;verticalAlign=top;html=1;shape=offPageConnector;rounded=0;size=0.5;" vertex="1" parent="1">
          <mxGeometry x="485" y="1080" width="30" height="30" as="geometry" />
        </mxCell>
        <mxCell id="0fHbCotXsVHA08c29kzg-147" value="ก" style="text;html=1;align=center;verticalAlign=middle;resizable=0;points=[];autosize=1;strokeColor=none;fillColor=none;fontFamily=Sarabun;fontSource=https%3A%2F%2Ffonts.googleapis.com%2Fcss%3Ffamily%3DSarabun;" vertex="1" parent="1">
          <mxGeometry x="485" y="1075" width="30" height="30" as="geometry" />
        </mxCell>
        <mxCell id="0fHbCotXsVHA08c29kzg-149" value="" style="endArrow=classic;html=1;rounded=0;entryX=0.5;entryY=0;entryDx=0;entryDy=0;" edge="1" parent="1">
          <mxGeometry width="50" height="50" relative="1" as="geometry">
            <mxPoint x="1514.71" y="67.5" as="sourcePoint" />
            <mxPoint x="1515" y="100" as="targetPoint" />
          </mxGeometry>
        </mxCell>
        <mxCell id="0fHbCotXsVHA08c29kzg-150" value="" style="verticalLabelPosition=bottom;verticalAlign=top;html=1;shape=offPageConnector;rounded=0;size=0.5;" vertex="1" parent="1">
          <mxGeometry x="1500" y="37.5" width="30" height="30" as="geometry" />
        </mxCell>
        <mxCell id="0fHbCotXsVHA08c29kzg-151" value="ก" style="text;html=1;align=center;verticalAlign=middle;resizable=0;points=[];autosize=1;strokeColor=none;fillColor=none;fontFamily=Sarabun;fontSource=https%3A%2F%2Ffonts.googleapis.com%2Fcss%3Ffamily%3DSarabun;" vertex="1" parent="1">
          <mxGeometry x="1500" y="2.5" width="30" height="30" as="geometry" />
        </mxCell>
        <mxCell id="0fHbCotXsVHA08c29kzg-157" style="edgeStyle=orthogonalEdgeStyle;rounded=0;orthogonalLoop=1;jettySize=auto;html=1;entryX=0.5;entryY=0;entryDx=0;entryDy=0;" edge="1" parent="1" source="0fHbCotXsVHA08c29kzg-155" target="0fHbCotXsVHA08c29kzg-156">
          <mxGeometry relative="1" as="geometry" />
        </mxCell>
        <mxCell id="0fHbCotXsVHA08c29kzg-155" value="รับเงิน" style="shape=parallelogram;perimeter=parallelogramPerimeter;whiteSpace=wrap;html=1;fixedSize=1;" vertex="1" parent="1">
          <mxGeometry x="1450" y="180" width="120" height="60" as="geometry" />
        </mxCell>
        <mxCell id="0fHbCotXsVHA08c29kzg-161" style="edgeStyle=orthogonalEdgeStyle;rounded=0;orthogonalLoop=1;jettySize=auto;html=1;entryX=0.5;entryY=1;entryDx=0;entryDy=0;" edge="1" parent="1" source="0fHbCotXsVHA08c29kzg-156" target="0fHbCotXsVHA08c29kzg-160">
          <mxGeometry relative="1" as="geometry">
            <mxPoint x="1660.0000000000005" y="285" as="targetPoint" />
          </mxGeometry>
        </mxCell>
        <mxCell id="0fHbCotXsVHA08c29kzg-156" value="ตรวจสอบ&lt;div&gt;จำนวนเงิน&lt;/div&gt;" style="rhombus;whiteSpace=wrap;html=1;" vertex="1" parent="1">
          <mxGeometry x="1460" y="260" width="100" height="100" as="geometry" />
        </mxCell>
        <mxCell id="0fHbCotXsVHA08c29kzg-162" style="edgeStyle=orthogonalEdgeStyle;rounded=0;orthogonalLoop=1;jettySize=auto;html=1;entryX=1;entryY=0.5;entryDx=0;entryDy=0;exitX=0.5;exitY=0;exitDx=0;exitDy=0;" edge="1" parent="1" source="0fHbCotXsVHA08c29kzg-160" target="0fHbCotXsVHA08c29kzg-155">
          <mxGeometry relative="1" as="geometry" />
        </mxCell>
        <mxCell id="0fHbCotXsVHA08c29kzg-160" value="เงินไม่พอ" style="rounded=0;whiteSpace=wrap;html=1;" vertex="1" parent="1">
          <mxGeometry x="1600" y="230" width="120" height="60" as="geometry" />
        </mxCell>
        <mxCell id="0fHbCotXsVHA08c29kzg-165" value="No" style="text;html=1;align=center;verticalAlign=middle;whiteSpace=wrap;rounded=0;" vertex="1" parent="1">
          <mxGeometry x="1550" y="285" width="50" height="30" as="geometry" />
        </mxCell>
        <mxCell id="0fHbCotXsVHA08c29kzg-167" style="edgeStyle=orthogonalEdgeStyle;rounded=0;orthogonalLoop=1;jettySize=auto;html=1;entryX=0.5;entryY=0;entryDx=0;entryDy=0;" edge="1" parent="1" source="0fHbCotXsVHA08c29kzg-156" target="0fHbCotXsVHA08c29kzg-168">
          <mxGeometry relative="1" as="geometry">
            <mxPoint x="1510" y="400" as="targetPoint" />
          </mxGeometry>
        </mxCell>
        <mxCell id="0fHbCotXsVHA08c29kzg-173" style="edgeStyle=orthogonalEdgeStyle;rounded=0;orthogonalLoop=1;jettySize=auto;html=1;entryX=0.5;entryY=0;entryDx=0;entryDy=0;" edge="1" parent="1" source="0fHbCotXsVHA08c29kzg-168" target="0fHbCotXsVHA08c29kzg-172">
          <mxGeometry relative="1" as="geometry" />
        </mxCell>
        <mxCell id="0fHbCotXsVHA08c29kzg-168" value="สรุปเงินทอน" style="rounded=0;whiteSpace=wrap;html=1;" vertex="1" parent="1">
          <mxGeometry x="1450" y="380" width="120" height="60" as="geometry" />
        </mxCell>
        <mxCell id="0fHbCotXsVHA08c29kzg-170" value="แสดงยอดรวมสินค้า" style="rounded=0;whiteSpace=wrap;html=1;" vertex="1" parent="1">
          <mxGeometry x="1455" y="100" width="120" height="60" as="geometry" />
        </mxCell>
        <mxCell id="0fHbCotXsVHA08c29kzg-171" style="edgeStyle=orthogonalEdgeStyle;rounded=0;orthogonalLoop=1;jettySize=auto;html=1;entryX=0.543;entryY=-0.015;entryDx=0;entryDy=0;entryPerimeter=0;" edge="1" parent="1" source="0fHbCotXsVHA08c29kzg-170" target="0fHbCotXsVHA08c29kzg-155">
          <mxGeometry relative="1" as="geometry" />
        </mxCell>
        <mxCell id="0fHbCotXsVHA08c29kzg-175" style="edgeStyle=orthogonalEdgeStyle;rounded=0;orthogonalLoop=1;jettySize=auto;html=1;entryX=0.5;entryY=0;entryDx=0;entryDy=0;" edge="1" parent="1" source="0fHbCotXsVHA08c29kzg-172" target="0fHbCotXsVHA08c29kzg-174">
          <mxGeometry relative="1" as="geometry" />
        </mxCell>
        <mxCell id="0fHbCotXsVHA08c29kzg-172" value="แสดงยอดเงินคงเหลือ&lt;div&gt;ภายในตู้&lt;/div&gt;" style="rounded=0;whiteSpace=wrap;html=1;" vertex="1" parent="1">
          <mxGeometry x="1450" y="470" width="120" height="60" as="geometry" />
        </mxCell>
        <mxCell id="0fHbCotXsVHA08c29kzg-174" value="&lt;font data-font-src=&quot;https://fonts.googleapis.com/css?family=Sarabun&quot; face=&quot;Sarabun&quot;&gt;เริ่มต้น&lt;/font&gt;" style="ellipse;whiteSpace=wrap;html=1;" vertex="1" parent="1">
          <mxGeometry x="1450" y="555" width="120" height="40" as="geometry" />
        </mxCell>
      </root>
    </mxGraphModel>
  </diagram>
</mxfile>
